<?xml version="1.0" encoding="UTF-8"?><svg xmlns="http://www.w3.org/2000/svg" viewBox="0 0 545.46 146.5"><defs><style>.d{fill:#fff;}.e{fill:#c9f677;}</style></defs><g id="a"/><g id="b"><g id="c"><g><g><path class="e" d="M458.01,139.22c32.97,11.37,63.63,9.18,68.48-4.89,4.85-14.07-17.94-34.69-50.91-46.06-32.97-11.37-63.63-9.18-68.48,4.89-4.85,14.07,17.94,34.69,50.91,46.06Zm-28.2-38.23c2.19-6.36,20.53-5.81,40.96,1.24,20.43,7.04,35.21,17.91,33.02,24.27-2.19,6.36-20.53,5.81-40.96-1.24-20.43-7.04-35.21-17.91-33.02-24.27Z"/><path class="e" d="M438.5,74.91c12.2,.31,24.03,2.67,35.63,6.41,13.54,4.36,26.34,10.22,37.9,18.61,1.69,1.23,1.69,1.22,2.66-.41,9.04-15.16,18.07-30.34,27.14-45.49,1.88-3.14,3.69-6.26,3.62-10.1-.09-5.1-2.02-9.54-4.8-13.66-5.52-8.18-13.11-14.06-21.63-18.74-11.69-6.42-24.2-10.36-37.55-11.32-8.13-.58-16.15-.01-23.81,3.05-5.09,2.03-9.46,4.98-11.85,10.2-1.1,2.4-1.17,5-1.49,7.54-.8,6.36-1.59,12.72-2.38,19.07l-1.86,15.12c-.85,6.35-1.7,12.7-2.55,19.04-.12,.87,.49,.66,.98,.67Z"/></g><g><path class="d" d="M27.88,44.7c3.99,0,7.29-1.35,9.9-4.07,2.61-2.71,3.91-6.01,3.91-9.9,0-3.38-1.05-6.14-3.15-8.29-2.1-2.15-4.89-3.22-8.37-3.22-3.99,0-7.29,1.33-9.9,3.99-2.61,2.66-3.91,6.04-3.91,10.13,0,3.28,1.07,5.99,3.22,8.13,2.15,2.15,4.91,3.22,8.29,3.22Z"/><path class="d" d="M35.93,56.67c-.46-.51-1.15-.77-2.07-.77H16.06c-1.64,0-2.56,.77-2.76,2.3L.1,132.8c-.21,.82-.08,1.51,.38,2.07,.46,.56,1.1,.84,1.92,.84H20.2c1.64,0,2.61-.82,2.92-2.46l13.2-74.59c.2-.82,.08-1.48-.38-2Z"/><path class="d" d="M80.11,53.76c-4.91,0-10.11,.56-15.58,1.69-5.48,1.13-10.67,2.61-15.58,4.45-1.23,.51-2,1.43-2.3,2.76l-12.59,70.14c-.21,.82-.08,1.51,.38,2.07,.46,.56,1.15,.84,2.07,.84h17.8c1.64,0,2.61-.82,2.92-2.46l10.13-57.56c2.66-1.23,5.93-1.84,9.82-1.84,6.75,0,10.13,3.17,10.13,9.52,0,1.33-.15,2.87-.46,4.6l-7.67,44.82c-.1,.82,.08,1.51,.54,2.07,.46,.56,1.1,.84,1.92,.84h17.65c1.64,0,2.61-.82,2.92-2.46l7.67-42.98c.51-3.27,.77-6.09,.77-8.44,0-8.7-2.64-15.55-7.9-20.57-5.27-5.01-12.82-7.52-22.64-7.52Z"/><path class="d" d="M190.99,57.59c0-1.12-.77-1.69-2.3-1.69h-19.03c-1.43,0-2.51,.67-3.22,2l-14.58,33.31c-1.94,4.6-3.58,8.7-4.91,12.28-.82,1.74-1.94,4.45-3.38,8.13h-.31c-.51-7.06-1.13-13.81-1.84-20.26l-3.68-33c-.1-1.64-1.02-2.46-2.76-2.46h-17.8c-1.74,0-2.61,.82-2.61,2.46v.31l11.82,74.59c.1,1.64,1.07,2.46,2.92,2.46h20.26c1.43,0,2.46-.66,3.07-2l37.91-74.75c.31-.51,.46-.97,.46-1.38Z"/><path class="d" d="M250.86,60.2c-5.53-4.3-12.84-6.45-21.95-6.45-9.72,0-18.09,2.51-25.09,7.52-7.01,5.01-11.38,12.33-13.12,21.95l-3.99,22.26c-.41,2.87-.61,4.86-.61,5.99,0,8.08,2.89,14.48,8.67,19.19,5.78,4.71,13.28,7.06,22.49,7.06,12.28,0,22.97-3.12,32.08-9.36,.82-.41,1.23-1.12,1.23-2.15,0-.2-.1-.71-.31-1.53l-6.29-11.82c-.41-.92-1.02-1.38-1.84-1.38-.61,0-1.18,.21-1.69,.61-6.86,4.09-13.51,6.14-19.95,6.14-7.27,0-10.9-2.92-10.9-8.75,0-.61,.1-1.74,.31-3.38l.46-2.15h42.67c1.53,0,2.46-.77,2.76-2.3l2.61-14.89c.51-3.07,.77-5.58,.77-7.52,0-8.39-2.76-14.73-8.29-19.03Zm-14.58,24.56l-.77,3.84h-22.41l.77-4.14c.71-3.58,2.23-6.34,4.53-8.29,2.3-1.94,5.14-2.92,8.52-2.92,3.17,0,5.58,.82,7.21,2.46,1.64,1.64,2.46,3.79,2.46,6.45,0,.51-.1,1.38-.31,2.61Z"/><path class="d" d="M305.39,53.76c-4.91,0-10.11,.56-15.58,1.69-5.48,1.13-10.67,2.61-15.58,4.45-1.23,.51-2,1.43-2.3,2.76l-12.59,70.14c-.21,.82-.08,1.51,.38,2.07,.46,.56,1.15,.84,2.07,.84h17.8c1.64,0,2.61-.82,2.92-2.46l10.13-57.56c2.66-1.23,5.93-1.84,9.82-1.84,6.75,0,10.13,3.17,10.13,9.52,0,1.33-.15,2.87-.46,4.6l-7.67,44.82c-.1,.82,.08,1.51,.54,2.07,.46,.56,1.1,.84,1.92,.84h17.65c1.64,0,2.61-.82,2.92-2.46l7.67-42.98c.51-3.27,.77-6.09,.77-8.44,0-8.7-2.64-15.55-7.9-20.57-5.27-5.01-12.82-7.52-22.64-7.52Z"/><path class="d" d="M387.63,58.59c-.46-.56-1.15-.84-2.07-.84l-15.55,.18,4.19-18.44c.1-.82-.08-1.48-.54-2-.46-.51-1.15-.77-2.07-.77h-15.04c-1.64,0-2.61,.82-2.92,2.46l-11.51,65.85c-.51,2.56-.77,5.48-.77,8.75,0,7.88,2.23,13.84,6.68,17.88,4.45,4.04,10.46,6.06,18.03,6.06,2.66,0,5.27-.26,7.83-.77,1.43-.1,2.3-.97,2.61-2.61l2.46-14.27c.41-1.74-.26-2.61-2-2.61h-4.6c-5.22,0-7.83-2.46-7.83-7.37,0-.71,.1-1.79,.31-3.22l5.22-29.62h12.59c1.64,0,2.61-.82,2.92-2.46l2.46-14.12c.2-.82,.08-1.51-.38-2.07Z"/></g></g></g></g></svg>