<?xml version="1.0" encoding="UTF-8"?><svg xmlns="http://www.w3.org/2000/svg" viewBox="0 0 387.84 253.78"><defs><style>.d{fill:#fff;}.e{fill:#c9f677;}</style></defs><g id="a"/><g id="b"><g id="c"><g><g><path class="e" d="M179.51,139.12c32.95,11.36,63.59,9.17,68.44-4.89,4.85-14.06-17.93-34.67-50.88-46.03-32.95-11.36-63.59-9.17-68.44,4.89-4.85,14.06,17.93,34.67,50.88,46.03Zm-28.18-38.2c2.19-6.36,20.52-5.8,40.93,1.24,20.41,7.04,35.18,17.9,32.99,24.25-2.19,6.36-20.52,5.8-40.93-1.24-20.41-7.04-35.18-17.9-32.99-24.25Z"/><path class="e" d="M160.01,74.86c12.2,.31,24.02,2.67,35.6,6.4,13.53,4.36,26.32,10.21,37.87,18.6,1.69,1.23,1.69,1.22,2.66-.41,9.04-15.15,18.06-30.32,27.12-45.45,1.88-3.14,3.69-6.26,3.62-10.09-.09-5.09-2.02-9.53-4.8-13.65-5.52-8.18-13.1-14.05-21.62-18.73C228.79,5.1,216.3,1.16,202.95,.2c-8.12-.58-16.14-.01-23.79,3.05-5.09,2.03-9.46,4.98-11.84,10.2-1.1,2.4-1.17,4.99-1.49,7.54-.8,6.35-1.59,12.71-2.38,19.06l-1.86,15.11c-.85,6.34-1.7,12.69-2.55,19.03-.12,.87,.49,.66,.98,.67Z"/></g><path class="d" d="M27.86,160.84c3.99,0,7.29-1.35,9.89-4.06,2.61-2.71,3.91-6.01,3.91-9.89,0-3.37-1.05-6.14-3.14-8.28-2.1-2.15-4.88-3.22-8.36-3.22-3.99,0-7.29,1.33-9.89,3.99-2.61,2.66-3.91,6.03-3.91,10.12,0,3.27,1.07,5.98,3.22,8.13,2.15,2.15,4.91,3.22,8.28,3.22Z"/><path class="d" d="M35.91,172.8c-.46-.51-1.15-.77-2.07-.77H16.05c-1.64,0-2.56,.77-2.76,2.3L.1,248.87c-.21,.82-.08,1.51,.38,2.07,.46,.56,1.1,.84,1.92,.84H20.19c1.63,0,2.61-.82,2.91-2.45l13.19-74.54c.2-.82,.08-1.48-.38-1.99Z"/><path class="d" d="M80.06,169.88c-4.91,0-10.1,.56-15.57,1.69-5.47,1.13-10.66,2.61-15.57,4.45-1.23,.51-1.99,1.43-2.3,2.76l-12.58,70.09c-.21,.82-.08,1.51,.38,2.07,.46,.56,1.15,.84,2.07,.84h17.79c1.63,0,2.61-.82,2.91-2.45l10.12-57.52c2.66-1.23,5.93-1.84,9.82-1.84,6.75,0,10.12,3.17,10.12,9.51,0,1.33-.15,2.86-.46,4.6l-7.67,44.79c-.1,.82,.08,1.51,.54,2.07,.46,.56,1.1,.84,1.92,.84h17.64c1.63,0,2.61-.82,2.91-2.45l7.67-42.95c.51-3.27,.77-6.08,.77-8.44,0-8.69-2.63-15.54-7.9-20.55-5.27-5.01-12.81-7.52-22.62-7.52Z"/><path class="d" d="M190.86,173.72c0-1.12-.77-1.69-2.3-1.69h-19.02c-1.43,0-2.51,.67-3.22,1.99l-14.57,33.28c-1.94,4.6-3.58,8.69-4.91,12.27-.82,1.74-1.94,4.45-3.37,8.13h-.31c-.51-7.06-1.13-13.8-1.84-20.25l-3.68-32.98c-.1-1.63-1.02-2.45-2.76-2.45h-17.79c-1.74,0-2.61,.82-2.61,2.45v.31l11.81,74.54c.1,1.64,1.07,2.45,2.91,2.45h20.25c1.43,0,2.45-.66,3.07-1.99l37.88-74.7c.31-.51,.46-.97,.46-1.38Z"/><path class="d" d="M250.69,176.33c-5.52-4.29-12.83-6.44-21.93-6.44-9.72,0-18.07,2.51-25.08,7.52-7.01,5.01-11.38,12.32-13.11,21.93l-3.99,22.24c-.41,2.86-.61,4.86-.61,5.98,0,8.08,2.89,14.47,8.67,19.17,5.78,4.7,13.27,7.06,22.47,7.06,12.27,0,22.95-3.12,32.06-9.36,.82-.41,1.23-1.12,1.23-2.15,0-.2-.1-.71-.31-1.53l-6.29-11.81c-.41-.92-1.02-1.38-1.84-1.38-.61,0-1.18,.21-1.69,.61-6.85,4.09-13.5,6.14-19.94,6.14-7.26,0-10.89-2.91-10.89-8.74,0-.61,.1-1.74,.31-3.37l.46-2.15h42.64c1.53,0,2.45-.77,2.76-2.3l2.61-14.88c.51-3.07,.77-5.57,.77-7.52,0-8.38-2.76-14.72-8.28-19.02Zm-14.57,24.54l-.77,3.83h-22.39l.77-4.14c.71-3.58,2.22-6.34,4.52-8.28,2.3-1.94,5.14-2.91,8.51-2.91,3.17,0,5.57,.82,7.21,2.45,1.63,1.64,2.45,3.78,2.45,6.44,0,.51-.1,1.38-.31,2.61Z"/><path class="d" d="M305.18,169.88c-4.91,0-10.1,.56-15.57,1.69-5.47,1.13-10.66,2.61-15.57,4.45-1.23,.51-1.99,1.43-2.3,2.76l-12.58,70.09c-.21,.82-.08,1.51,.38,2.07,.46,.56,1.15,.84,2.07,.84h17.79c1.63,0,2.61-.82,2.91-2.45l10.12-57.52c2.66-1.23,5.93-1.84,9.82-1.84,6.75,0,10.12,3.17,10.12,9.51,0,1.33-.15,2.86-.46,4.6l-7.67,44.79c-.1,.82,.08,1.51,.54,2.07,.46,.56,1.1,.84,1.92,.84h17.64c1.63,0,2.61-.82,2.91-2.45l7.67-42.95c.51-3.27,.77-6.08,.77-8.44,0-8.69-2.63-15.54-7.9-20.55-5.27-5.01-12.81-7.52-22.62-7.52Z"/><path class="d" d="M387.36,174.72c-.46-.56-1.15-.84-2.07-.84l-15.54,.18,4.19-18.43c.1-.82-.08-1.48-.54-1.99-.46-.51-1.15-.77-2.07-.77h-15.03c-1.64,0-2.61,.82-2.91,2.45l-11.5,65.8c-.51,2.56-.77,5.47-.77,8.74,0,7.88,2.22,13.83,6.67,17.87,4.45,4.04,10.45,6.06,18.02,6.06,2.66,0,5.27-.26,7.82-.77,1.43-.1,2.3-.97,2.61-2.61l2.45-14.26c.41-1.74-.26-2.61-1.99-2.61h-4.6c-5.21,0-7.82-2.45-7.82-7.36,0-.71,.1-1.79,.31-3.22l5.21-29.6h12.58c1.63,0,2.61-.82,2.91-2.45l2.45-14.11c.2-.82,.08-1.51-.38-2.07Z"/></g></g></g></svg>